<svg version="1.2" xmlns="http://www.w3.org/2000/svg" viewBox="0 0 4267 1667" width="4267" height="1667">
	<title>All Inclusive Bills (1)-svg</title>
	<style>
		.s0 { fill: none;stroke: #ff1724;stroke-width: 8.3 } 
		.s1 { fill: #ff1724;stroke: #ff1724;stroke-width: 8.3 } 
		.s2 { fill: #ac1aee } 
		.s3 { fill: #0374fd } 
		.s4 { fill: #ff1724 } 
		.s5 { fill: #000000 } 
		.s6 { fill: none;stroke: #fad27a;stroke-width: 8.3 } 
		.s7 { fill: none;stroke: #f8a711;stroke-width: 8.3 } 
		.s8 { fill: #f8a711 } 
		.s9 { opacity: 1;fill: #f8a711 } 
		.s10 { opacity: 1;fill: #fcfde3 } 
		.s11 { fill: #11ab15 } 
	</style>
	<g>
		<path fill-rule="evenodd" class="s0" d="m2841.2 538.1q-0.1-0.3-0.1-0.6"/>
		<path fill-rule="evenodd" class="s1" d="m2841.8 524.6q-0.2-0.6-0.5-0.9-0.4-0.2-0.7 0-6 5-1 15"/>
		<path fill-rule="evenodd" class="s0" d="m2833.1 540.2q-6-7.2-8.4-14.1"/>
		<path fill-rule="evenodd" class="s0" d="m2901.9 534.6l-0.5 3.9"/>
	</g>
	<path class="s2" d="m3795.7 324.7c-1.3-18 4.5-34.1 25.4-34.8q29.5-1 56-1.9 19.5-0.7 27.1 2.8 14.9 6.8 14.8 27-0.4 85.4 0 107.2 0.1 2.3 1.8 3.7 50.3 43.4 103.8 93.2 5.8 5.3 18.3 18.2 11 11.2 14.8 19.9 8.7 19.7 6.5 43.9-4.4 48.1-48.7 62.8c-8.5 2.8-14.9 3.1-22.9 3.9q-2.3 0.3-2.3 2.6-0.2 73.2-2.7 195.8-0.2 12.3-4.5 18.9c-11.7 17.8-33.7 41.8-56.6 43.3q-14.1 1-44.6-0.6-25.1-1.3-44.4-1.2-47.2 0.2-78.4 0.2-13.4 0-21.8-5.6c-8.9-5.9-14-13.7-20.7-23.9q-17.9-27.2-17.1-61.4 0.1-4.8 0.4-48.8 0-1.8-1.8-1.8h-88.5q-7.8 0-6.2-7.6l1.8-7.7q1.8-8.4 10.4-8.4h80.6q1.8 0 1.8-1.8v-23.7q0-0.2 0-0.4 0.1-0.2 0.3-0.4 0.1-0.1 0.3-0.2 0.2-0.1 0.4-0.1h26.2q0.8 0 0.8 0.9v23.3q0 2.4 2.4 2.4h76.9q1.8 0 3.5 0.5 1.7 0.6 3.1 1.7 1.4 1.1 2.3 2.6 1 1.5 1.4 3.2l2 8q1.9 7.8-6 7.8h-85q-1.9 0-2 1.8-2.6 35 3.1 67.2 4.2 23.9 25.1 37.5 7.9 5.1 16.4 5.4 59.9 2.2 143.1 0.6 13.5-0.3 21.2-4.5c10.1-5.6 19.8-15.1 25.4-24.9q1.5-2.6 1.7-13.1 1.3-63.2 4.3-214.3 0.1-2.3 2.3-2.2c41.1 1.3 76.9-16.3 65.2-64q-2.1-8.5-11.2-17.2-42.2-40.5-119.3-105.6-9.3-7.9-9.6-19.4-1.9-72-1.8-110.3 0.1-11.8-10.7-12.8-28.4-2.8-55 2.1-0.9 0.2-1.7 0.7-0.8 0.4-1.4 1.1-0.6 0.7-0.9 1.6-0.3 0.8-0.3 1.7c0 14.2 2.4 34.5-6 45.1q-0.5 0.5-1.1 1-0.6 0.4-1.3 0.7-0.7 0.3-1.5 0.3-0.7 0.1-1.4 0-13.5-2.6-24.8-12.5-23.2-20.5-40.9-31.7-28.5-18-55.4-1.6-34.7 21.4-71.7 50.5-124.6 97.9-226.4 193.2-0.5 0.4-0.8 0.9-0.4 0.5-0.6 1.1-0.3 0.5-0.5 1.1-0.1 0.6-0.2 1.2c-1.4 17.6 1.7 41.4 14.1 54.6q10.7 11.5 26.8 15.2 9.4 2.2 28.1 4.1 1.2 0.2 2.4 0.7 1.1 0.6 2 1.5 0.9 0.8 1.5 2 0.5 1.1 0.6 2.4 1.6 14.9 1.9 34.1 1.9 154.7-3.2 239.6-0.2 2.4-7.3 11.7c-4.6 6-13.7 4-17.1-1.2q-4.6-7-4.4-17.8 2.4-133.9 1.1-243.5 0-0.7-0.2-1.4-0.3-0.7-0.8-1.3-0.5-0.5-1.1-0.8-0.6-0.4-1.4-0.5-30.9-4-54.6-27.7c-14.8-14.8-22.4-36.6-19-58.1q3.4-22.2 15.8-37.8 3.4-4.3 28.7-27.4 94.5-86.5 182.2-157.5 47.3-38.3 88.2-63.7 21.4-13.2 33.8-15.5c8.1-1.4 26.5 2.4 34.8 6.1q30.6 13.6 53 38.8 0.2 0.3 0.6 0.4 0.3 0 0.6-0.1 0.4-0.1 0.5-0.4 0.2-0.4 0.2-0.7z"/>
	<path class="s3" d="m2153.7 324.6q2.8 2.9 2.9-1.1 1.2-31 27.7-31.9 33.7-1.2 60.5-1.7 15.7-0.3 22.5 3.4c11.3 6 14 15.7 13.9 28.8q-0.3 41.1-0.1 105 0.1 2 1.5 3.3 61.5 53.2 105.3 94.5 4.3 4 19.7 19.4 10.7 10.8 14.2 21.9 7.4 23.7 4.7 42.3-7.7 53.3-59 62.5-11.4 2-12.5 2.2-2.4 0.5-2.4 2.2-0.2 84.7-2.7 198-0.3 10.4-4.8 17c-12.7 18.8-34 41.9-57.3 43q-22.7 1-43.2-0.6-19.3-1.5-43.1-1.3-41.8 0.5-91.6-0.3-3.4 0-10.2-4.8c-13.2-9.3-23.7-27.4-30.6-42.7q-7.2-16-7.4-39.8-0.2-32.1 3-68.7 0.8-8.8 0.6-64.1 0-2.3-1.9-3.5l-12.2-7.2q-0.1-0.1-0.2-0.1 0 0-0.1-0.1-0.1 0-0.1-0.1-0.1 0-0.1-0.1-10.6-9.9-24.4-15-11.9-4.4-25.8 1.7-24.4 10.7-26.7 39-0.1 0.7-0.4 1.3-0.2 0.5-0.7 1-0.5 0.4-1.1 0.7-0.6 0.2-1.3 0.2h-41.4q-1 0-2-0.4-0.9-0.5-1.6-1.3-0.7-0.8-0.9-1.8-0.3-1.1 0-2.1 5-24.2 14.8-42.4 21.7-40.6 70.2-48.8c9.2-1.6 26.6-7.7 27.6-18.4q0.1-1.1 0-17.5 0-0.7 0.3-1.3 0.2-0.6 0.7-1.1 0.4-0.4 1.1-0.7 0.6-0.2 1.2-0.2h69.3q0.6 0 1.2 0.2 0.5 0.3 0.9 0.7 0.4 0.5 0.6 1.1 0.1 0.5 0 1.1-2.5 17.2 8.2 30.7 4.3 5.6 18.3 6.3 22.2 1.1 40.6-0.2 0.8-0.1 1.6 0.2 0.8 0.3 1.4 0.8 0.6 0.6 0.9 1.3 0.3 0.8 0.3 1.6v43.5q0 0.5-0.2 1-0.2 0.5-0.5 0.9-0.4 0.3-0.9 0.5-0.4 0.2-1 0.2-19.2-0.1-39.1 0.3c-6.2 0.2-15.9 2.5-20.2 5.1q-24.2 15-34.7 18.6-2 0.6-2.4 2.8-1.3 6.5 0.7 14.1 0.7 2.5 0.7 14.3 0.5 65.4 2.1 108c0.8 21 10.7 42.5 29.8 52.3q8.5 4.3 28.1 4.6 64.2 0.9 114.7 0.2 5.2-0.1 18.2-0.8 10.7-0.5 17.1-4.4 11.7-7.1 19.9-17.5 6.7-8.3 7-21.3 2.9-116.3 2.7-209.2 0-6.1 6.1-6.3c10.3-0.2 21.5-0.8 31.6-4.1q42.4-13.5 31.4-59.6-1.9-8-8.1-13.9-6.7-6.3-26-24.6-24-22.8-95.9-84.3c-6.4-5.5-10.1-10.4-10.3-19.2q-1-51.2-1.8-112.6 0-10-10-10h-52.6q-6.2 0-6.8 6.1c-1.3 12.5 1.3 27.3-3.4 41.1q-0.5 1.5-1.5 2.7-0.9 1.2-2.3 2-1.3 0.8-2.8 1.1-1.5 0.3-3 0.1-9.9-1.6-18.2-8.2-7.6-6.1-30.5-24.8-11-9-23.7-15.1-23.6-11.3-45.9 2.1-34.1 20.5-63.7 43.8-123.6 96.9-231.5 196.7c-2.6 2.5-6.1 5.9-6.3 10-1.6 32 7.7 60.9 41.9 67.9q15.6 3.3 23.5 3.5 9.9 0.3 10.5 10.1 2.3 37.4 2.1 75-0.4 113-4.2 195.7-0.1 1.8-0.9 3.8-0.9 2-2.5 4.1-1.6 2.1-3.8 4.2-2.2 2-4.9 3.9-0.3 0.1-0.6 0.1c-2.1-0.4-4.2-1.2-6.1-2.1-1.9-1-3.6-2.2-5-3.5-1.4-1.4-2.5-3-3.2-4.6-0.7-1.6-1.1-3.3-1.1-5l0.8-251.6q0-2.2-2.1-3-4.8-1.9-12.6-3.6-8.3-1.8-12.5-3.7-25.8-11.2-39.5-31.8-15.3-22.8-9.9-51.3 3.8-20.1 15.8-35.1 3.7-4.6 27.1-25.8c79.3-72.2 157.6-140.5 241.7-203.8q31.6-23.8 61.6-33.4c5.7-1.8 23.7 1.2 30.8 3.7q30.5 10.8 56.4 38z"/>
	<path fill-rule="evenodd" class="s2" d="m3890 711.7c0 2.8-0.6 5.5-1.6 8-1.1 2.5-2.6 4.8-4.5 6.7-2 2-4.2 3.5-6.8 4.5-2.5 1.1-5.2 1.6-7.9 1.6h-318.9c-2.7 0-5.4-0.5-7.9-1.6-2.6-1-4.9-2.5-6.8-4.5-1.9-1.9-3.4-4.2-4.5-6.7-1-2.5-1.6-5.2-1.6-8v-199.2c0-2.7 0.6-5.4 1.6-7.9 1.1-2.6 2.6-4.9 4.5-6.8 1.9-1.9 4.2-3.4 6.8-4.5 2.5-1 5.2-1.6 7.9-1.6h318.9c2.7 0 5.4 0.6 7.9 1.6 2.6 1.1 4.8 2.6 6.8 4.5 1.9 1.9 3.4 4.2 4.5 6.8 1 2.5 1.6 5.2 1.6 7.9zm-22.9-193.2q0-0.3-0.1-0.5-0.1-0.3-0.3-0.5-0.2-0.2-0.5-0.3-0.3-0.1-0.6-0.1h-312.2q-0.2 0-0.5 0.1-0.3 0.1-0.5 0.3-0.2 0.2-0.3 0.5-0.1 0.2-0.1 0.5v184.9q0 0.3 0.1 0.5 0.1 0.3 0.3 0.5 0.2 0.2 0.5 0.3 0.3 0.1 0.5 0.1h312.2q0.3 0 0.6-0.1 0.3-0.1 0.5-0.3 0.2-0.2 0.3-0.5 0.1-0.2 0.1-0.5z"/>
	<path class="s3" d="m2074.5 497.2c9.7 0 18.1 5.2 26 5.9q6.6 0.6 15.8-1.6c8.7-2 18-6.7 25.7-3.2 26.3 11.7 15.2 46.4-12.8 40.8q-20-3.9-28.8-5.4c-1.2-0.2-2.5-0.1-3.7 0.2-1.2 0.3-2.4 0.8-3.4 1.5-1 0.8-1.8 1.7-2.5 2.8-0.6 1.1-1 2.3-1.2 3.5q-0.5 4-0.9 10.6-0.6 11.9 10.6 13.1 2.5 0.2 1 2.2-0.7 1-2.3 1.2-14.8 1.9-23.3 1.9-8.6 0-23.5-1.9-1.5-0.2-2.2-1.1-1.5-2 1-2.3 11.2-1.1 10.5-13-0.4-6.7-0.9-10.6c-0.2-1.3-0.6-2.5-1.2-3.5-0.7-1.1-1.5-2-2.5-2.8-1-0.7-2.2-1.3-3.4-1.6-1.2-0.2-2.5-0.3-3.7-0.1q-8.8 1.5-28.8 5.5c-27.9 5.6-39.1-29-12.8-40.9 7.7-3.4 17 1.2 25.6 3.2q9.2 2.2 15.8 1.6c7.9-0.7 16.3-6 25.9-6z"/>
	<path id="Radiator" fill-rule="evenodd" class="s4" d="m2841.2 538.1q-0.1-0.3-0.1-0.6 3.8-8 0.7-12.9-0.2-0.6-0.5-0.9-0.4-0.2-0.7 0-6 5-1 15-3.6 1.6-6.5 1.5-6-7.2-8.4-14.1l-0.8-4.6q-0.4-2.2 1.7-2.9 5.5-1.9 12.4-0.4 2.1 0.4 2.9-1.7l4.2-10.9q0.8-2.2 2.5-3.9l13.5-13.5q1.8-1.8 3.6 0c11.4 11.9 19.8 18.9 20.5 33.5 0.6 12.8-1.6 25.2-1.6 37.9q0.4 67.5 0.4 135.1 0 0.5 2.1 19 1.3 10.9-3.6 21.7-0.7 1.7 1.1 1.7h18q2.1 0 3-2 1-1.9-0.7-6.8 0.2-1.1-0.3-1.8-0.5-0.9-1 0l-0.5 1.2q-4.5 4.1-9.1 2-2.2-1-3.1-3.8-0.8-2.5-1.3-5.1v-6.2q2.8-5.5 11.8-2.5-0.2 1.3 1 1.5 0.7 0.2 0.7-0.5-0.1-0.8 1.2-1l1.3-190q-1.6-1.4-2.5-4.2 5.8-17.7 21.5-28.6 1.7-1.2 3.5 0 24.8 16.8 21.5 44.8-2.3 20.1-2.3 23.1 0.3 68.6 0.7 149.7 0.1 7.8 7.4 4.7 2.1-0.9 5.5 1.7 1.5 1.2 1.5 3.1v10.4q0 2.1-2.2 2.5-6 1-8.7-7.7-0.6-1.8-0.8 0.1-3.1 21.9-21.5 33.4-1.8 1.1-3.7 0.3-7.5-2.6-12.7-10.4-3.7-5.6-4.5 1.1-0.7 6.5-0.4 27.5 0.1 11.7-1.3 27.2-2 23.4 2.2 57.4c2.9 23.4 19.9 47.9 45.6 48.5q58.6 1.4 114.5 0.7 31.5-0.4 37.4-2 18.9-5 31.7-23.6 4.7-6.9 4.8-12.8 2.6-146.9 4.4-218.6 0-2.2 2.2-2.2 10.3-0.1 22.9-2 18.5-2.9 29.8-12c15.8-12.8 16.7-30 12.4-49.6q-2.1-9.5-12.3-19.1-55.5-52.1-114.1-100.6-3.3-2.7-11.3-12.3-0.4-0.4-0.7-0.9-0.3-0.5-0.5-1-0.2-0.5-0.3-1.1-0.1-0.5-0.2-1.1-1.1-14.3-1.2-22.4-1.2-74.9-1.4-94.9-0.1-11.3-9.7-12.4-28-3.2-55.6 2-1 0.2-1.9 0.8-0.9 0.5-1.6 1.3-0.6 0.9-0.9 1.9-0.4 1-0.3 2c0.6 13.9 2.1 34.6-5.9 44.2q-0.4 0.4-0.8 0.7-0.3 0.3-0.8 0.5-0.5 0.2-0.9 0.3-0.5 0.1-1 0.1c-15-0.4-30-14.4-42.9-26q-12.4-11.2-29.6-20.6-25.8-14.2-51.6 1.9-32.2 20.2-62.1 43.4-124.9 97.1-234.4 199.3-0.6 0.5-1 1.1-0.5 0.6-0.8 1.3-0.3 0.7-0.5 1.4-0.1 0.8-0.2 1.5c-1.5 31.9 7.5 62.3 42.8 69.4q4.9 1 28.3 4.3 0.7 0.1 1.4 0.4 0.6 0.3 1.1 0.8 0.5 0.6 0.9 1.2 0.3 0.6 0.4 1.3 2.5 14.9 2.7 32.3 1.7 108.5-3.1 237.8c-0.3 10.4-7.4 24.2-19.5 20.7q-0.9-0.2-1.7-0.7-0.8-0.4-1.5-1-0.7-0.5-1.3-1.2-0.5-0.7-0.9-1.6-4.3-8.5-4.1-20.6 2.5-136.5 1.1-240.3 0-2-1.8-2.9c-7.3-3.9-15.9-3.2-22.6-6.6q-23.4-11.7-28.2-16.4-39.4-39-17.6-87.2 5.9-13.1 19.8-26 105.5-97 205.7-178.2 35.2-28.6 85-60.9 2.7-1.8 20.4-10.1 10.8-5.1 21.9-3.3 17.4 2.9 23.9 5.8 28.1 12.5 52.3 37.7 2.6 2.8 2.4-1-1.2-25.9 17.3-32.1 3.8-1.3 31.1-2.2 32.7-1.2 39.5-1.3 15.3-0.4 22.4 4c11.1 6.9 13 15.6 12.9 29.1q-0.2 47.3 0 103.5 0 0.7 0.1 1.4 0.2 0.7 0.5 1.3 0.3 0.6 0.7 1.1 0.4 0.6 0.9 1 55.2 46.7 115.5 104.3 0.1 0.1 14.1 15c11.5 12 15.1 37.9 13.8 53.8q-4.1 52.9-55.6 66.4c-3.8 1-11.1 1.5-16.2 1.9q-2.3 0.2-2.3 2.5-0.3 78.4-2.8 196.7-0.2 11.7-4.5 18.2c-10.7 16.1-26.3 32.9-44.9 40.7q-6.6 2.8-17.7 2.9-26.5 0.1-39.2-0.9-24.5-1.7-39-1.3-19.7 0.5-66.3 0-24.6-0.2-26.3-0.5-13.9-2.9-23.3-15-16.9-21.7-22.9-41.7-4.6-15.4-4-46.4 0.3-10.9 1.7-86.4 0.1-6.6-4.6-1.9l-12.6 12.6q-1.3 1.3-2.8 0.3-16.4-10-21.6-24.7-0.9-2.5-3.4-1.9-7.9 1.8-10.5-1.1c-1.2-1.3-2.1-2.9-2.7-4.6-0.6-1.6-0.9-3.3-0.8-5 0.1-1.6 0.6-3.1 1.4-4.4 0.9-1.2 2-2.2 3.3-2.8q3.8-1.7 8.1 0.5 4.9 2.6 4.9-3zm-65.1-13.5q3.4-21.5 21.2-35.9 2-1.7 4.2-0.1 10.9 8.3 15.7 16.7 3.5 6.1 3.4 19.8-0.5 74.5-0.2 172.9 0.1 10.3 0.6 18 1.1 13.1-0.3 18-2.9 10.2-15.9 19.7-3.8 2.9-6.8 1.9-0.5-0.2-5-3.6-14.1-10.8-14.2-21.7 0-87.1-0.8-193.5-0.1-4.4-4.5-4.7-2.3-0.2-6.5 1.2-0.5 0.2-1 0.4-0.5 0.2-0.9 0.6-0.4 0.3-0.7 0.6-0.4 0.4-0.7 0.8-5.3 7.5-14.4 7.9-15.4 0.5-14.4-15.3 0.6-9.3 6.1-13.1 9-6.3 18.8 1.9 7 5.7 14.4 8.7 1.6 0.6 1.9-1.2zm-17.3 3.5c0-1.3-0.2-2.6-0.7-3.7-0.5-1.2-1.2-2.3-2.1-3.2-0.9-0.9-2-1.6-3.1-2.1-1.2-0.5-2.5-0.7-3.7-0.7-1.3 0-2.6 0.2-3.7 0.7-1.2 0.5-2.3 1.2-3.2 2.1-0.9 0.9-1.6 2-2.1 3.2-0.5 1.1-0.7 2.4-0.7 3.7 0 1.2 0.2 2.5 0.7 3.7 0.5 1.1 1.2 2.2 2.1 3.1 0.9 0.9 2 1.6 3.2 2.1 1.1 0.5 2.4 0.7 3.7 0.7 1.2 0 2.5-0.2 3.7-0.7 1.1-0.5 2.2-1.2 3.1-2.1 0.9-0.9 1.6-2 2.1-3.1 0.5-1.2 0.7-2.5 0.7-3.7zm206.8 192.3c-1.8-4.4 0.5-10.5 0.6-14.4q2.1-94.8 0.9-180.4-0.2-15.8 3.6-21.3 5.4-7.7 16.4-15.8 1.8-1.4 3.3 0.2c6.4 6.6 15.7 14.5 17.1 20.9q0.8 3.3 0.9 6.6 1.7 51.2 0.7 203.6c-0.2 18.4-3.9 25.8-18.9 35.9q-1.8 1.2-3.7 0.2c-10.3-6-23.5-19.2-20.5-31.5q0.1-0.5 0.1-1 0.1-0.5 0-1 0-0.5-0.1-1-0.2-0.5-0.4-1zm-64.3-202.5l1.3 8-0.7 8.7-0.5 3.9q-2.4 2.6-6 1.6-6.3-4.5-5.7-11.8-0.7-3.3-0.4-6.4 0.3-2.2 2.3-3 4.6-2 9.7-1z"/>
	<path class="s4" d="m2902.1 517.9q0.9 2.8 2.5 4.2-1.6-0.7-2 3.9l-1.2-8q0.4-0.1 0.7-0.1z"/>
	<path class="s4" d="m2964.1 520.6v4.3q-2 5.3-0.3 10.2 1.7 5.1-3.7 5.1h-3.7q-5.6 0-5.6-5.6v-13.2q0-1.8 1.6-2.5 6.4-2.5 11.7 1.7z"/>
	<path class="s5" d="m2964.1 524.9v-4.3q1.2 2 0 4.3z"/>
	<path class="s0" d="m2841.8 524.6q-5.2 4-0.7 12.9 0 0.3 0.1 0.6-0.8 0.3-1.6 0.6-5-10 1-15 0.3-0.2 0.7 0 0.3 0.3 0.5 0.9z"/>
	<path class="s4" d="m2833.1 540.2q-11.5-0.1-8.4-14.1 2.4 6.9 8.4 14.1z"/>
	<path class="s4" d="m2889.7 528.4q-0.6 7.2 5.7 11.7-2.5 0.3-4.4-0.9-0.5-0.2-0.8-0.6-0.4-0.3-0.6-0.7-0.3-0.5-0.5-0.9-0.1-0.5-0.2-1-0.3-3.9 0.8-7.6z"/>
	<path class="s5" d="m2901.9 534.6q0.1 2-0.5 3.9z"/>
	<path class="s3" d="m2039.2 576.5h71.4c2.8 0 5.1 2.3 5.1 5.2v0.2c0 2.9-2.3 5.2-5.1 5.2h-71.4c-2.8 0-5.1-2.3-5.1-5.2v-0.2c0-2.9 2.3-5.2 5.1-5.2z"/>
	<path class="s3" d="m2226 692.3q0 0.5-0.2 0.9-0.2 0.5-0.5 0.8-0.4 0.4-0.8 0.5-0.4 0.2-0.9 0.2l-14.8 0.2c-2.5 0-4.9-0.4-7.2-1.3-2.3-0.9-4.4-2.2-6.2-3.8-1.7-1.7-3.1-3.6-4.1-5.8-1-2.1-1.5-4.4-1.5-6.8l-0.4-38c0-2.4 0.4-4.7 1.3-6.9 1-2.2 2.3-4.1 4.1-5.8 1.7-1.7 3.8-3 6-3.9 2.3-1 4.8-1.5 7.2-1.5l14.8-0.1q0.5 0 0.9 0.1 0.5 0.2 0.8 0.6 0.4 0.3 0.5 0.7 0.2 0.5 0.2 0.9z"/>
	<path class="s3" d="m1925.9 734.8l44.5 0.2c3.2 0 5.9 2.7 5.8 6v2c0 3.3-2.6 5.9-5.9 5.9l-44.4-0.2c-3.3 0-5.9-2.7-5.9-5.9v-2.1c0-3.3 2.7-5.9 5.9-5.9z"/>
	<path class="s3" d="m1947.5 766.8q1.7 0 3.2 2.7 13.3 23.1 24.1 52.1 4.8 12.9 1.4 22.4c-4.6 13.1-13.8 20.5-28.2 20.6-14.3 0.1-23.6-7.2-28.4-20.3q-3.5-9.4 1.2-22.4 10.5-29.1 23.5-52.4 1.5-2.7 3.2-2.7z"/>
	<g id="Electricity">
		<path fill-rule="evenodd" class="s6" d="m412.5 801.3q4.6-12.5 3-20-2.1-9.9-2.3-14.9-0.1-2.4-2.3-2.7l-13.7-2.3q-7-1.2-4.6-7.8 0.1-0.4 0.3-1.1 0.5-1.4 1.4-2.5 0.9-1.2 2.1-2 1.2-0.9 2.7-1.3 1.5-0.4 3-0.3 21.5 0.6 32.5-0.4 13.3-1.1 25.6 2.4c1.1 0.3 2.1 1 2.9 1.8 0.9 0.9 1.4 1.9 1.7 3.1 0.3 1.1 0.2 2.3-0.1 3.5-0.3 1.1-1 2.1-1.8 2.9q-1.6 1.5-5.7 1.9-7 0.7-14.1 2.3-2.1 0.5-0.9 2.3 0.3 0.5 0.9 1 1.4 1.1 0.5 2.7c-2.1 3.7-4.8 7.3-4.5 12q1.4 22.1 0.8 52.6-0.3 14.8 5.6 28.4"/>
		<path fill-rule="evenodd" class="s7" d="m676 740.9c2.8-10.3 0.5-21.6 0.4-25.1-0.8-25.5-0.8-44.5 2-68.8"/>
		<path fill-rule="evenodd" class="s6" d="m434.3 416.6q0-1.3-0.5-2.5-0.5-1.1-1.4-2-0.9-0.9-2.1-1.4-1.1-0.5-2.4-0.5h-0.3q-1.3 0.1-2.4 0.5-1.2 0.5-2.1 1.4-0.9 0.9-1.4 2.1-0.4 1.1-0.4 2.4l0.1 66.8q0 1.2 0.5 2.4 0.5 1.1 1.3 2 0.9 0.9 2.1 1.4 1.2 0.5 2.4 0.5h0.4q1.2 0 2.4-0.5 1.1-0.5 2-1.4 0.9-0.9 1.4-2 0.5-1.2 0.5-2.5z"/>
		<path fill-rule="evenodd" class="s6" d="m305.2 464.5q-1-0.9-2.3-1.4-1.2-0.6-2.6-0.6-1.4 0-2.6 0.5-1.3 0.6-2.3 1.5l-0.1 0.2q-1 1-1.5 2.2-0.6 1.3-0.6 2.7 0 1.3 0.6 2.6 0.5 1.3 1.4 2.2l46.9 47.1q1 1 2.3 1.5 1.2 0.5 2.6 0.5 1.4 0 2.6-0.5 1.3-0.5 2.3-1.5l0.1-0.2q1-0.9 1.5-2.2 0.6-1.3 0.6-2.6 0-1.4-0.6-2.7-0.5-1.2-1.4-2.2z"/>
		<path fill-rule="evenodd" class="s6" d="m560.1 474.4q0.9-0.9 1.4-2.2 0.5-1.2 0.5-2.5 0-1.3-0.5-2.5-0.5-1.3-1.4-2.2l-0.3-0.2q-0.9-0.9-2.1-1.4-1.2-0.5-2.5-0.5-1.4 0-2.6 0.5-1.2 0.5-2.1 1.4l-45.4 45.7q-0.9 0.9-1.4 2.1-0.5 1.2-0.5 2.6 0 1.3 0.5 2.5 0.5 1.2 1.5 2.1l0.2 0.3q0.9 0.9 2.2 1.4 1.2 0.5 2.5 0.5 1.3 0 2.5-0.5 1.2-0.5 2.2-1.5z"/>
		<path fill-rule="evenodd" class="s6" d="m428.4 705.9q26.2-0.2 32.6-0.5 1-0.1 1.9-0.4 1-0.3 1.7-0.9 0.8-0.6 1.4-1.4 0.5-0.8 0.8-1.8 6.5-20.4 20.7-37.9 15.9-19.8 17.9-24.2 16.4-36.3 5.3-67.6-17.1-47.6-70.2-58.8-6.4-1.3-13.3-1.3-6.8 0.1-13.2 1.5-53 11.8-69.5 59.6-10.8 31.4 6.1 67.5 2.1 4.4 18.2 23.9 14.3 17.4 21.1 37.8 0.3 0.9 0.8 1.7 0.6 0.8 1.4 1.4 0.8 0.6 1.7 0.9 0.9 0.3 1.9 0.4 6.5 0.2 32.7 0.1z"/>
		<path fill-rule="evenodd" class="s6" d="m469.9 716.1q0-1.5-0.5-2.8-0.6-1.4-1.6-2.4-1.1-1-2.4-1.6-1.3-0.6-2.8-0.6l-70-0.1q-1.5 0-2.8 0.6-1.4 0.5-2.4 1.6-1 1-1.6 2.3-0.6 1.4-0.6 2.8v1.6q0 1.5 0.6 2.8 0.5 1.4 1.6 2.4 1 1 2.4 1.6 1.3 0.6 2.8 0.6l70 0.1q1.4 0 2.8-0.6 1.3-0.5 2.4-1.5 1-1.1 1.5-2.4 0.6-1.4 0.6-2.8z"/>
		<path fill-rule="evenodd" class="s6" d="m467.3 734.2q0-1.4-0.5-2.7-0.5-1.2-1.5-2.2-1-0.9-2.2-1.4-1.3-0.6-2.6-0.5l-64.6 0.3q-1.4 0-2.6 0.5-1.3 0.6-2.3 1.5-0.9 1-1.4 2.2-0.5 1.3-0.5 2.7v2.9q0 1.3 0.5 2.6 0.5 1.2 1.5 2.2 1 1 2.2 1.5 1.3 0.5 2.6 0.5l64.6-0.4q1.4 0 2.6-0.5 1.3-0.5 2.3-1.5 0.9-1 1.4-2.2 0.5-1.3 0.5-2.6z"/>
		<path fill-rule="evenodd" class="s6" d="m382.4 553.5q-17.3 16.6-19.4 42.7-0.3 4.7 2.1 6.5 0.7 0.5 1.6 0.6 0.9 0.1 1.7-0.3 0.8-0.3 1.3-1.1 0.5-0.7 0.6-1.6 2.6-25.6 18.1-40.5 15.6-14.9 41.3-16.4 0.9-0.1 1.6-0.6 0.8-0.5 1.2-1.3 0.3-0.8 0.3-1.7-0.1-0.9-0.6-1.6-1.7-2.4-6.4-2.3-26.1 1-43.4 17.6z"/>
		<path fill-rule="evenodd" class="s6" d="m319.8 596.9q0-1.3-0.5-2.6-0.5-1.2-1.5-2.1-0.9-0.9-2.1-1.5-1.2-0.5-2.6-0.4l-66.9 0.2q-1.3 0-2.5 0.5-1.3 0.5-2.2 1.5-0.9 0.9-1.4 2.1-0.5 1.3-0.5 2.6v0.4q0 1.3 0.5 2.5 0.5 1.3 1.4 2.2 1 0.9 2.2 1.4 1.2 0.5 2.6 0.5l66.9-0.2q1.3 0 2.5-0.5 1.2-0.5 2.2-1.5 0.9-0.9 1.4-2.1 0.5-1.3 0.5-2.6z"/>
		<path fill-rule="evenodd" class="s6" d="m616.1 597.1q0-1.4-0.5-2.6-0.5-1.2-1.5-2.2-0.9-0.9-2.2-1.4-1.2-0.5-2.5-0.5h-68.3q-1.3 0-2.5 0.5-1.3 0.5-2.2 1.4-1 1-1.5 2.2-0.5 1.2-0.5 2.6v0.4q0 1.3 0.5 2.6 0.5 1.2 1.5 2.1 0.9 1 2.2 1.5 1.2 0.5 2.5 0.5h68.3q1.3 0 2.5-0.5 1.3-0.5 2.2-1.5 1-0.9 1.5-2.1 0.5-1.3 0.5-2.6z"/>
		<path fill-rule="evenodd" class="s6" d="m560.8 729.8q1-1 1.5-2.3 0.5-1.3 0.5-2.7 0-1.4-0.5-2.7-0.5-1.3-1.5-2.3l-46.6-46.3q-0.9-1-2.2-1.5-1.3-0.6-2.7-0.6-1.4 0-2.7 0.6-1.3 0.5-2.3 1.5l-0.2 0.2q-1 1-1.6 2.3-0.5 1.3-0.5 2.7 0 1.4 0.5 2.7 0.6 1.3 1.6 2.3l46.5 46.4q1 0.9 2.3 1.5 1.3 0.5 2.7 0.5 1.4 0 2.7-0.5 1.3-0.6 2.2-1.6z"/>
		<path fill-rule="evenodd" class="s6" d="m351.8 683.9q1-1 1.5-2.3 0.6-1.4 0.6-2.8 0-1.4-0.6-2.7-0.5-1.3-1.5-2.3l-0.2-0.2q-1-1-2.4-1.6-1.3-0.5-2.7-0.5-1.4 0-2.7 0.5-1.3 0.6-2.3 1.6l-47.3 47.4q-1 1-1.5 2.3-0.5 1.3-0.5 2.7 0 1.4 0.5 2.8 0.6 1.3 1.6 2.3l0.2 0.2q1 1 2.3 1.5 1.3 0.6 2.7 0.6 1.5 0 2.8-0.6 1.3-0.5 2.3-1.5z"/>
		<path class="s8" d="m502.2 317.1q0 3.1 2.5 4.5 2 1.1 2.8-1.1 1.4-4.6-0.6-9.9l14.3-19.7q1.3-1.8 3.5-2 29.5-2.4 69.4-1.6c19.5 0.5 41.4 8.7 39.9 30.7q-0.6 9.1 1 17c1.3 6.9-0.3 16.8-0.3 22.9q-0.1 33.6 0 68 0 0.7 0.1 1.4 0.2 0.7 0.5 1.3 0.3 0.7 0.7 1.3 0.4 0.5 0.9 1 72.3 64.5 106.8 92.3 12.8 10.2 19.7 20.9 9.3 14.4 13.4 25.3c4.2 11.2 4.3 36.3 1.4 47.9q-9.5 39.4-48.8 51.6-11.5 3.6-20.8 5.5-0.8 0.2-1.5 0.6-0.7 0.4-1.2 1-0.5 0.7-0.8 1.4-0.3 0.8-0.3 1.6 0.2 119.4-0.4 157.6-0.1 9-1.5 35-0.6 11.5-6.1 19.8c-10.6 16-27.6 33.5-45.3 40.3q-5.8 2.2-15.6 2.1-4.7-0.1-92.8-1-2.6-0.1-40.2 0.6-21.8 0.4-40.2-2.2c-5.6-0.8-14-6.1-18.8-11.5q-15.2-17.4-20.9-26.1c-9.8-15.2-12-29.3-11.2-48.6q0.8-22.1 0.7-43.7 4.6-12.5 3-20-2.1-9.9-2.3-14.9-0.1-2.4-2.3-2.7l-13.7-2.3q-7-1.2-4.6-7.8 0.1-0.4 0.3-1.1 0.5-1.4 1.4-2.5 0.9-1.2 2.1-2 1.2-0.9 2.7-1.3 1.5-0.4 3-0.3 21.5 0.6 32.5-0.4 13.3-1.1 25.6 2.4c1.1 0.3 2.1 1 2.9 1.8 0.9 0.9 1.4 1.9 1.7 3.1 0.3 1.1 0.2 2.3-0.1 3.5-0.3 1.1-1 2.1-1.8 2.9q-1.6 1.5-5.7 1.9-7 0.7-14.1 2.3-2.1 0.5-0.9 2.3 0.3 0.5 0.9 1 1.4 1.1 0.5 2.7c-2.1 3.7-4.8 7.3-4.5 12q1.4 22.1 0.8 52.6-0.3 14.8 5.6 28.4 4.5 16 18.2 27.5 10 8.4 25 9.9 11.7 1 22.2 0.1 13.8-1.3 22-0.6 31.8 2.7 76.5 0.3 8.2-0.5 27.4-0.4 6.3 0 10-4.7 9.6-1.4 10.6-8.9 11.9-5.4 12.5-15.2c0.9-13.9 2.6-27.9 2.5-41.4q0-46.6-0.1-92.9 4.3-15.6 4.1-20.8-1.1-38.2 3.1-74.5 8.2-1.5 15.1-1.1 11.2 0.6 15-0.2 40.3-8.5 37-53.3-0.8-11.3-8.2-18.9-24.3-25.4-49.6-46.7-55-46.5-83.3-72.1-0.5-0.4-0.8-0.9-0.4-0.6-0.7-1.2-0.2-0.5-0.4-1.2-0.1-0.6-0.1-1.2v-117.6q0-1.4-0.5-2.7-0.6-1.3-1.5-2.3-1-0.9-2.3-1.5-1.3-0.5-2.7-0.5h-56q-0.9 0-1.8 0.4-0.9 0.4-1.5 1.1-0.6 0.7-0.9 1.6-0.3 0.9-0.2 1.9 2.7 19.8-3.5 39.8-0.6 2-2.6 2.6-14.9 4.9-23.6-2.8-38-33.8-48.7-39.4c-17.9-9.5-34.2-13.4-52.3-3q-35.7 20.6-44.9 29.1-9.9 9.2-16.1 13.8-9.7 7.4-9.9 7.5-32 27-64.3 52.8-84.1 66.3-161.4 139.9-2.4 2.4-3.6 4.3-2.7 4.4-0.7 5.9-6.5 49.2 35 63.9 6.7 2.3 12.6 1.9 4.5-0.4 13.3 0.6 14.2 1.4 14.5 15.3 1.5 75.8-1.3 248.6-0.1 9.5 0.5 12.1 1.3 5.6 1 10.4-0.1 2.2-1.8 3.4-3.5 2.5-10 6.8c-15.7 10.2-22.6-9.3-22.5-20.5q1.1-88.7 0.8-241.5 0-0.5-0.2-1-0.2-0.5-0.4-0.9-0.3-0.4-0.7-0.7-0.4-0.3-0.9-0.5-5.4-1.9-12.4-1.8-0.4 0-0.7 0-0.4-0.1-0.8-0.2-0.3-0.1-0.7-0.2-0.3-0.1-0.6-0.3-8.4-5.3-14.9-7c-9.2-2.4-18-12.4-24.9-18.1-9.2-7.7-11.4-15.7-16.6-26.4q-4.2-8.6-3-24.1 1.4-18.6 3.1-24.1 6.9-22.4 24-37.7 117.7-104.9 238.6-204.6l71.5-45.3q32.7-6.9 63.2 9.8c10.8 5.8 21.3 15.6 32 23.8z"/>
		<path class="s9" d="m407 283.5l-71.5 45.3q25.9-23.4 49.1-38 8.3-5.2 22.4-7.3z"/>
		<path fill-rule="evenodd" class="s10" d="m438 485.5c0 1.3-0.3 2.6-0.8 3.9-0.5 1.2-1.3 2.3-2.2 3.2-1 1-2.1 1.7-3.3 2.2-1.3 0.5-2.6 0.8-3.9 0.8h-2.1c-1.3-0.1-2.6-0.3-3.9-0.8-1.2-0.6-2.3-1.3-3.2-2.3-1-0.9-1.7-2-2.2-3.2-0.5-1.3-0.8-2.6-0.8-3.9l0.4-68.6c0-1.4 0.3-2.7 0.8-3.9 0.5-1.2 1.3-2.3 2.2-3.3 1-0.9 2.1-1.6 3.3-2.1 1.2-0.6 2.6-0.8 3.9-0.8h2.1c1.3 0 2.6 0.3 3.8 0.8 1.3 0.5 2.4 1.3 3.3 2.2 0.9 1 1.7 2.1 2.2 3.3 0.5 1.2 0.7 2.6 0.7 3.9zm-3.7-68.9q0-1.3-0.5-2.4-0.4-1.2-1.3-2.1-0.9-0.9-2.1-1.4-1.2-0.4-2.4-0.4h-0.4q-1.2 0-2.4 0.4-1.1 0.5-2 1.4-0.9 0.9-1.4 2.1-0.5 1.1-0.5 2.4l0.1 66.8q0 1.2 0.5 2.4 0.5 1.1 1.4 2 0.9 0.9 2.1 1.4 1.1 0.5 2.4 0.5h0.3q1.3 0 2.4-0.5 1.2-0.5 2.1-1.4 0.9-0.9 1.4-2 0.4-1.2 0.4-2.5z"/>
		<path class="s8" d="m427.6 410.2h0.3c3.5 0 6.4 2.9 6.4 6.4l0.1 66.7c0 3.5-2.8 6.4-6.3 6.4h-0.4c-3.5 0-6.3-2.8-6.3-6.3l-0.1-66.8c0-3.5 2.8-6.3 6.3-6.4z"/>
		<path class="s9" d="m270.2 425.3q-62.5 56.8-126.9 110.8-12.7 10.6-38.8 39.3-2-1.5 0.7-5.9 1.2-1.9 3.6-4.3 77.3-73.6 161.4-139.9z"/>
		<path fill-rule="evenodd" class="s10" d="m310.9 464.2l46.4 47.1c0.9 0.9 1.6 2 2.1 3.2 0.4 1.2 0.6 2.5 0.5 3.8-0.1 1.2-0.4 2.5-1 3.6-0.6 1.1-1.4 2.1-2.5 2.9q-7.9 6.1-17.3-1.7-21.7-17.9-48.5-48-7.5-8.4 1.5-14.4 0.3-0.2 0.4-0.2 8.8-6.1 18.4 3.7zm-5.7 0.3q-1-0.9-2.3-1.4-1.2-0.6-2.6-0.6-1.4 0-2.6 0.5-1.3 0.6-2.3 1.5l-0.1 0.2q-1 1-1.5 2.2-0.6 1.3-0.6 2.7 0 1.3 0.6 2.6 0.5 1.3 1.4 2.2l46.9 47.1q1 1 2.3 1.5 1.2 0.5 2.6 0.5 1.4 0 2.6-0.5 1.3-0.5 2.3-1.5l0.1-0.2q1-0.9 1.5-2.2 0.6-1.3 0.6-2.6 0-1.4-0.6-2.7-0.5-1.2-1.4-2.2z"/>
		<path fill-rule="evenodd" class="s10" d="m531.1 509.3q-4.3 2.8-11.3 14.5-1.2 2-3.5 2h-9.9q-5.7 0-6.6-5.7-1.6-9.8 5.7-16.6l16.9-18c4.8-5.1 12.3-10.7 17.4-18.2q4.1-6.2 7.6-7.4c7.6-2.7 16.1-2.4 18.5 6.4q1.8 6.4-1.2 11-11.1 17.1-33.6 32zm29-34.9q0.9-0.9 1.4-2.2 0.5-1.2 0.5-2.5 0-1.3-0.5-2.5-0.5-1.3-1.4-2.2l-0.3-0.2q-0.9-0.9-2.1-1.4-1.2-0.5-2.5-0.5-1.4 0-2.6 0.5-1.2 0.5-2.1 1.4l-45.4 45.7q-0.9 0.9-1.4 2.1-0.5 1.2-0.5 2.6 0 1.3 0.5 2.5 0.5 1.2 1.5 2.1l0.2 0.3q0.9 0.9 2.2 1.4 1.2 0.5 2.5 0.5 1.3 0 2.5-0.5 1.2-0.5 2.2-1.5z"/>
		<path class="s8" d="m295.3 464.7l0.1-0.2c2.7-2.7 7.1-2.6 9.8 0l46.9 47.1c2.6 2.7 2.6 7-0.1 9.7l-0.1 0.2c-2.7 2.7-7.1 2.7-9.8 0l-46.9-47.1c-2.6-2.7-2.6-7 0.1-9.7z"/>
		<path class="s8" d="m559.8 464.8l0.3 0.2c2.6 2.6 2.6 6.8 0 9.4l-45.3 45.6c-2.6 2.6-6.8 2.7-9.4 0.1l-0.2-0.3c-2.6-2.5-2.6-6.7-0.1-9.3l45.4-45.7c2.6-2.6 6.7-2.6 9.3 0z"/>
		<path fill-rule="evenodd" class="s10" d="m445.5 862.9q-5.9-13.6-5.6-28.4 0.6-30.5-0.8-52.6c-0.3-4.7 2.4-8.3 4.5-12q0.9-1.6-0.5-2.7-0.6-0.5-0.9-1-1.2-1.8 0.9-2.3 7.1-1.6 14.1-2.3 4.1-0.4 5.7-1.9c0.8-0.8 1.5-1.8 1.8-2.9 0.3-1.2 0.4-2.4 0.1-3.5-0.3-1.2-0.8-2.2-1.7-3.1-0.8-0.8-1.8-1.5-2.9-1.8q-12.3-3.5-25.6-2.4-11 1-32.5 0.4-1.5-0.1-3 0.3-1.5 0.4-2.7 1.3-1.2 0.8-2.1 2-0.9 1.1-1.4 2.5-0.2 0.7-0.3 1.1-2.4 6.6 4.6 7.8l13.7 2.3q2.2 0.3 2.3 2.7 0.2 5 2.3 14.9 1.6 7.5-3 20 1.2-16.4-6-30.1-0.9-1.7-2.8-2.2l-11-2.9q-1-0.3-1.9-0.8-0.9-0.6-1.6-1.4-0.7-0.8-1.2-1.8-0.4-0.9-0.6-2-1.4-10.9-4.5-31.4 0-0.3-3.2-10.3-2.1-6.8 2.5-13.3 1.2-1.6 0.7-3.6l-5-20.6q-0.6-2.1-2.2-3.5-54.8-47.4-32.7-117.6 1.8-5.5 11.2-17.2 7.9-10 14.4-14.4 10.5-7.1 24.9-15.9 4.2-2.6 15.4-5.1 6-1.3 15.8 0.2 9.3 1.4 23.5 0.4 1-0.1 1.9 0.1 1 0.1 1.9 0.4 1 0.3 1.8 0.7 0.9 0.5 1.7 1.1 8.8 7.1 19.7 9c8.2 1.4 10.3 2.9 13.6 9.6q0.4 0.7 0.8 1.4 0.5 0.6 1 1.3 0.5 0.6 1 1.1 0.6 0.6 1.2 1.1c5.3 4.3 7.9 6.4 11.1 12.9q7.3 15.2 9.1 18.9c5.9 11.8 6.8 24.1 7.9 36.6 0.6 6.4-3 9-3.6 14.9q-0.4 5-2.6 16.1-1.3 7.2-7.8 13.5-6 5.9-23.4 29.8c-6.6 9-8 17.6-12.9 26.7q-0.2 0.3-0.3 0.6-0.1 0.4-0.1 0.8 0 0.3 0.1 0.7 0 0.4 0.2 0.7l4.3 9.4q0.8 1.8 0.2 3.7-3.4 10.2-5.9 27.8-0.1 0.5 0.4 8.9 0.5 6.7-3.4 9.2-2.1 1.2-4.4 1.2h-7q-0.4 0-0.9 0.2-0.5 0.1-0.9 0.3-0.4 0.3-0.7 0.7-0.3 0.3-0.5 0.7-6.4 13.4-7.3 15.9c-1.7 4.9-0.7 8.3 0.4 13.2q0.4 2.1-0.2 4c-2.3 7.6-0.2 14.6-0.7 21.1q-1.4 19.2 1.6 40.8zm-17.1-157q26.2-0.2 32.6-0.5 1-0.1 1.9-0.4 1-0.3 1.7-0.9 0.8-0.6 1.4-1.4 0.5-0.8 0.8-1.8 6.5-20.4 20.7-37.9 15.9-19.8 17.9-24.2 16.4-36.3 5.3-67.6-17.1-47.6-70.2-58.8-6.4-1.3-13.3-1.3-6.8 0.1-13.2 1.5-53 11.8-69.5 59.6-10.8 31.4 6.1 67.5 2.1 4.4 18.2 23.9 14.3 17.4 21.1 37.8 0.3 0.9 0.8 1.7 0.6 0.8 1.4 1.4 0.8 0.6 1.7 0.9 0.9 0.3 1.9 0.4 6.5 0.2 32.7 0.1zm41.5 10.2q0-1.5-0.5-2.8-0.6-1.4-1.6-2.4-1.1-1-2.4-1.6-1.3-0.6-2.8-0.6l-70-0.1q-1.5 0-2.8 0.6-1.4 0.5-2.4 1.6-1 1-1.6 2.3-0.6 1.4-0.6 2.8v1.6q0 1.5 0.6 2.8 0.5 1.4 1.6 2.4 1 1 2.4 1.6 1.3 0.6 2.8 0.6l70 0.1q1.4 0 2.8-0.6 1.3-0.5 2.4-1.5 1-1.1 1.5-2.4 0.6-1.4 0.6-2.8zm-2.6 18q0-1.3-0.5-2.6-0.5-1.2-1.5-2.2-1-0.9-2.2-1.5-1.3-0.5-2.7-0.5l-64.5 0.4q-1.4 0-2.7 0.5-1.2 0.5-2.2 1.5-0.9 1-1.4 2.2-0.5 1.3-0.5 2.6v3q0 1.3 0.5 2.6 0.5 1.2 1.5 2.2 1 0.9 2.2 1.5 1.3 0.5 2.6 0.5l64.6-0.4q1.4 0 2.6-0.5 1.3-0.5 2.3-1.5 0.9-1 1.4-2.2 0.5-1.3 0.5-2.6z"/>
		<path fill-rule="evenodd" class="s8" d="m427.2 511.1q6.9 0 13.3 1.3 53.1 11.2 70.2 58.8 11.1 31.3-5.3 67.6-2 4.4-17.9 24.2-14.2 17.5-20.7 37.9-0.3 1-0.8 1.8-0.6 0.8-1.4 1.4-0.7 0.6-1.7 0.9-0.9 0.3-1.9 0.4-6.4 0.3-32.6 0.5-26.2 0.1-32.7-0.1-1-0.1-1.9-0.4-0.9-0.3-1.7-0.9-0.8-0.6-1.4-1.4-0.5-0.8-0.8-1.7-6.8-20.4-21.1-37.8-16.1-19.5-18.2-23.9-16.9-36.1-6.1-67.5 16.5-47.8 69.5-59.6 6.4-1.4 13.2-1.5zm-44.8 42.4q-17.3 16.6-19.4 42.7-0.3 4.7 2.1 6.5 0.7 0.5 1.6 0.6 0.9 0.1 1.7-0.3 0.8-0.3 1.3-1.1 0.5-0.7 0.6-1.6 2.6-25.6 18.1-40.5 15.6-14.9 41.3-16.4 0.9-0.1 1.6-0.6 0.8-0.5 1.2-1.3 0.3-0.8 0.3-1.7-0.1-0.9-0.6-1.6-1.7-2.4-6.4-2.3-26.1 1-43.4 17.6z"/>
		<path class="s10" d="m388.4 559.8q-15.5 14.9-18.1 40.5-0.1 0.9-0.6 1.6-0.5 0.8-1.3 1.1-0.8 0.4-1.7 0.3-0.9-0.1-1.6-0.6-2.4-1.8-2.1-6.5 2.1-26.1 19.4-42.7 17.3-16.6 43.4-17.6 4.7-0.1 6.4 2.3 0.5 0.7 0.6 1.6 0 0.9-0.3 1.7-0.4 0.8-1.2 1.3-0.7 0.5-1.6 0.6-25.7 1.5-41.3 16.4z"/>
		<path fill-rule="evenodd" class="s10" d="m325.4 596.3c0 1.5-0.3 2.9-0.8 4.2-0.6 1.4-1.3 2.6-2.4 3.7-1 1-2.2 1.8-3.5 2.4-1.3 0.6-2.7 0.9-4.2 0.9l-67.7 0.9c-1.4 0-2.8-0.2-4.2-0.8-1.3-0.5-2.5-1.3-3.6-2.3-1-1-1.8-2.2-2.4-3.5-0.6-1.4-0.9-2.8-0.9-4.2v-0.9c0-1.4 0.2-2.8 0.8-4.2 0.5-1.3 1.3-2.5 2.3-3.6 1-1 2.2-1.8 3.5-2.4 1.4-0.6 2.8-0.9 4.2-0.9l67.7-1c1.4 0 2.9 0.3 4.2 0.8 1.4 0.6 2.6 1.4 3.6 2.4 1.1 1 1.9 2.2 2.5 3.5 0.5 1.3 0.8 2.7 0.8 4.2zm-5.5 0.6q0-1.4-0.5-2.6-0.5-1.2-1.5-2.1-0.9-1-2.1-1.5-1.3-0.5-2.6-0.5l-66.9 0.3q-1.3 0-2.6 0.5-1.2 0.5-2.1 1.4-0.9 1-1.5 2.2-0.5 1.2-0.5 2.5v0.5q0.1 1.3 0.6 2.5 0.5 1.2 1.4 2.2 1 0.9 2.2 1.4 1.2 0.5 2.5 0.5l67-0.2q1.3 0 2.5-0.5 1.2-0.6 2.2-1.5 0.9-0.9 1.4-2.2 0.5-1.2 0.5-2.5z"/>
		<path fill-rule="evenodd" class="s10" d="m621.7 596.9c0 1.5-0.3 2.9-0.9 4.2-0.5 1.3-1.3 2.5-2.3 3.5-1 1-2.2 1.8-3.5 2.3-1.3 0.5-2.7 0.8-4.1 0.8l-69.1-0.1c-1.4 0-2.8-0.3-4.2-0.8-1.3-0.6-2.5-1.4-3.5-2.4-1-1-1.7-2.2-2.3-3.5-0.5-1.3-0.8-2.7-0.8-4.1v-0.7c0-1.4 0.3-2.8 0.8-4.1 0.6-1.3 1.4-2.5 2.4-3.5 1-1 2.2-1.8 3.5-2.3 1.3-0.6 2.7-0.9 4.1-0.9l69.1 0.2c1.4 0 2.8 0.3 4.1 0.8 1.3 0.5 2.5 1.3 3.5 2.3 1 1 1.8 2.2 2.4 3.5 0.5 1.4 0.8 2.8 0.8 4.2zm-5.6 0.1q0-1.3-0.5-2.6-0.5-1.2-1.5-2.1-0.9-1-2.2-1.5-1.2-0.5-2.5-0.5h-68.3q-1.3 0-2.5 0.5-1.3 0.5-2.2 1.5-1 0.9-1.5 2.1-0.5 1.3-0.5 2.6v0.4q0 1.4 0.5 2.6 0.5 1.2 1.5 2.2 0.9 0.9 2.2 1.4 1.2 0.5 2.5 0.5h68.3q1.3 0 2.5-0.5 1.3-0.5 2.2-1.4 1-1 1.5-2.2 0.5-1.2 0.5-2.6z"/>
		<path class="s8" d="m246.2 590.5l66.9-0.2c3.7-0.1 6.7 2.9 6.7 6.6v0.4c0 3.7-2.9 6.7-6.6 6.7l-66.9 0.2c-3.7 0.1-6.7-2.9-6.7-6.6v-0.4c-0.1-3.7 2.9-6.7 6.6-6.7z"/>
		<path class="s8" d="m541.1 590.4h68.3c3.7 0 6.7 3 6.7 6.7v0.4c0 3.7-3 6.7-6.7 6.7h-68.3c-3.7 0-6.7-3-6.7-6.7v-0.4c0-3.7 3-6.7 6.7-6.7z"/>
		<path class="s9" d="m679.5 641.3q-4.2 36.3-3.1 74.5 0.2 5.2-4.1 20.8l1.1-87.6q0-0.4 0.1-0.9 0.1-0.5 0.3-1 0.1-0.4 0.4-0.9 0.2-0.4 0.6-0.8 2.5-3 4.7-4.1z"/>
		<path fill-rule="evenodd" class="s10" d="m563.8 734c-1 1-2.3 1.8-3.6 2.4-1.3 0.5-2.8 0.8-4.2 0.8-1.5 0-2.9-0.3-4.2-0.8-1.4-0.6-2.6-1.4-3.6-2.4l-49.1-48.9c-1-1-1.8-2.3-2.4-3.6-0.5-1.3-0.8-2.8-0.8-4.2 0-1.5 0.2-2.9 0.8-4.2 0.5-1.4 1.4-2.6 2.4-3.6l0.5-0.5c1-1 2.2-1.8 3.5-2.4 1.4-0.6 2.8-0.8 4.3-0.9 1.4 0 2.8 0.3 4.2 0.9 1.3 0.5 2.5 1.3 3.6 2.4l49 48.9c1.1 1 1.9 2.2 2.4 3.5 0.6 1.4 0.9 2.8 0.9 4.3 0 1.4-0.3 2.9-0.9 4.2-0.5 1.3-1.3 2.6-2.3 3.6zm-3-4.2q0.9-1 1.5-2.3 0.5-1.3 0.5-2.7 0-1.4-0.5-2.7-0.6-1.2-1.6-2.2l-46.5-46.4q-1-1-2.3-1.5-1.3-0.5-2.7-0.5-1.4 0-2.7 0.5-1.3 0.5-2.2 1.5l-0.3 0.3q-1 1-1.5 2.2-0.5 1.3-0.5 2.7 0 1.4 0.5 2.7 0.5 1.3 1.5 2.3l46.6 46.4q1 1 2.2 1.5 1.3 0.5 2.7 0.5 1.4 0 2.7-0.5 1.3-0.5 2.3-1.5z"/>
		<path fill-rule="evenodd" class="s10" d="m330.5 678.6c5.6-3.2 11-13.1 18.6-12.7q6.1 0.4 8.8 6 0.2 0.4 0.3 0.9 0.1 0.5 0.2 1 0 0.5 0 1-0.1 0.5-0.2 0.9-4.1 12.8-9.5 18-19.6 19.2-30.2 30.9c-6.8 7.5-14.8 12.6-24.1 11.8-1.4-0.2-2.7-0.7-3.9-1.4-1.1-0.8-2.1-1.9-2.7-3.1-0.6-1.3-0.9-2.7-0.9-4.1 0.1-1.3 0.5-2.7 1.2-3.9 8.9-15 24.1-26.8 33-37.8q3.7-4.4 9.4-7.5zm21.3 5.3q1-1 1.5-2.3 0.6-1.4 0.6-2.8 0-1.4-0.6-2.7-0.5-1.3-1.5-2.3l-0.2-0.2q-1-1-2.4-1.6-1.3-0.5-2.7-0.5-1.4 0-2.7 0.5-1.3 0.6-2.3 1.6l-47.3 47.4q-1 1-1.5 2.3-0.5 1.3-0.5 2.7 0 1.4 0.5 2.8 0.6 1.3 1.6 2.3l0.2 0.2q1 1 2.3 1.5 1.3 0.6 2.7 0.6 1.5 0 2.8-0.6 1.3-0.5 2.3-1.5z"/>
		<path class="s8" d="m351.6 673.6l0.2 0.2c2.8 2.8 2.8 7.3 0 10.1l-47.2 47.4c-2.8 2.8-7.3 2.8-10.1 0l-0.2-0.2c-2.8-2.8-2.8-7.3-0.1-10.1l47.3-47.4c2.8-2.8 7.3-2.8 10.1 0z"/>
		<path class="s8" d="m514.2 673.5l46.6 46.3c2.7 2.8 2.7 7.2 0 10l-0.3 0.2c-2.7 2.8-7.2 2.8-9.9 0.1l-46.5-46.4c-2.8-2.8-2.8-7.2 0-10l0.2-0.2c2.7-2.8 7.2-2.8 9.9 0z"/>
		<path class="s8" d="m392.6 708.6l70 0.1c4 0.1 7.3 3.3 7.3 7.4v1.6c0 4-3.3 7.3-7.3 7.3l-70-0.1c-4.1 0-7.4-3.3-7.4-7.4v-1.6c0-4 3.3-7.3 7.4-7.3z"/>
		<path class="s8" d="m395.9 727.7l64.6-0.3c3.7-0.1 6.8 3 6.8 6.8v2.9c0.1 3.7-3 6.8-6.8 6.8l-64.6 0.4c-3.7 0-6.8-3-6.8-6.8v-2.9c-0.1-3.8 3-6.9 6.8-6.9z"/>
	</g>
	<g id="Wifi">
		<path fill-rule="evenodd" class="s11" d="m1333 315.2q1.7 2.9 4.5 5 1.8 1.4 2.1-0.8l1.8-15.2q5.3-16.6 21.1-16.9 39.9-0.7 64.1-1.7 17.6-0.8 25.2 4.2 13.5 8.9 13.3 25.6-0.6 55-0.3 106.3 0 0.8 0.2 1.6 0.1 0.7 0.5 1.5 0.3 0.7 0.8 1.4 0.5 0.6 1.1 1.1 67.6 58.5 118.9 107.5 16.2 15.5 20.5 31.5 4 14.9 6.4 30.8 0.8 5.6-1.3 10.3-3.3 7.3-3.7 9.1-8.3 32.5-40.7 47.6l-30.2 10.1q0.2 1.1 0 1.2-0.2 4.7-0.3 7 0 72.6-3.1 182.4-0.4 13.3-5.2 21.7c-12.5 21.7-33.1 39.9-58.3 44.5q-8.3 1.5-24.1 1.1-53.4-1.4-106.7-1.4-9.9-3.3-23.8-0.4-27.7 1.6-46-18.8-14.4-17.4-20.9-36.8-4.2-12.8-4.3-41.2-0.1-25.3-1.6-49.8-39.2-34.9-4.4-65.6c6.5-5.7 13.4-4.8 19.9-7.5q0.4-0.2 0.9-0.3 0.5 0 1.1 0 0.5 0 0.9 0.2 0.5 0.1 1 0.4c4.2 2.3 10.5 1.7 15.5 4.7q13.2 8 16.6 18.7 10.5 33.2-20.4 49.2-1.9 1-1.9 3.1-1.1 48.7-0.4 56.2 1.1 10.9 9.2 30.4 4.8 11.5 19.5 20.1 7.9 4.6 25.6 5 65.9 1.1 121.9 0.3 12.1-0.3 24.1-2.3 9.2-1.5 20.8-15.5l11.4-158q0-9.9 0.1-19.9c0.1-12.6-1.3-32.3-0.1-48.6q0.3-4.3 2.2-8 1.5-3 3.8-7.5 22.3 0.8 36.8-4 37.6-12.2 30.7-53.4 0.3-12.2-7.8-19.9-35.6-33.5-121.9-107.1-6.9-5.9-10.6-12.7-1.4-2.7-1.4-5.7v-113.9q0-1.5-0.6-2.9-0.5-1.4-1.6-2.4-1-1.1-2.4-1.7-1.4-0.5-2.9-0.5h-57.8q-0.4 0-0.9 0.1-0.4 0.1-0.8 0.3-0.4 0.2-0.7 0.4-0.4 0.3-0.6 0.7-1.9 2.4-0.2 3.8-0.8 13.5-1.2 26-0.3 13-9.2 21.4-17.3-4.4-31.3-17-11.8-10.6-12.1-10.8-11.3-9.1-23.2-17.3-24.5-17.1-47.9-5.6-11.1 4-15.9 7-30.3 19.4-57.5 42.7l-234.2 209.4q-2.6 18.6 5.2 34.3 7.5 15.3 21.8 22.1 14.6 6.9 31.9 6.8 7.9 0 13.3 4.5 1.6 1.3 1.8 3.3 2.2 19.2 2.5 46.1 0.9 98.6-3.2 227.2-0.1 2.8-3.8 10.6-4.4 9.3-13.9 10.1-0.5 0-1 0-0.5-0.1-1-0.3-0.4-0.2-0.9-0.4-0.4-0.3-0.8-0.7-10.2-10.2-10.4-23.7-0.1-9.4 0.9-26.9l1.9-218.2q0-0.5-0.2-0.9-0.1-0.4-0.4-0.7-0.3-0.4-0.7-0.6-0.4-0.2-0.9-0.2-62.6-7.7-75.8-69.2-1.5-22.5 7.5-41.7 6.3-13.1 26.2-31.4 112.1-102.7 222.8-191.3 0.1-0.1 21-17.9 10.2-8.6 26.6-18.4 4.4-2.7 25.9-12.8 13.6-6.4 24.2-6.8 12.8-0.4 25.5 4.2 28.5 10.5 51.9 32.4zm-73 209.9q13.4 0 15.6 0 8.7 0 15.6 1 82 10.9 141.9 69.1 2.3 2.2 7.6 11.2 0.2 0.5 0.4 1 0.2 0.5 0.3 1 0.1 0.5 0.1 1 0.1 0.6 0 1.1-2.6 21-21.8 26.7-10.9 3.2-20-5.3-44.1-41.6-98.1-53.5c-3.3-0.7-9.2-0.2-13.5-1.8q-3.2-1.2-5.4-1.3-11.9-0.5-22.7-0.5-10.8 0-22.8 0.5-2.1 0.1-5.4 1.3c-4.3 1.6-10.2 1.1-13.5 1.8q-54 11.9-98.1 53.4-9.1 8.5-20 5.3-19.2-5.6-21.8-26.7-0.1-0.5 0-1 0-0.6 0.1-1.1 0.1-0.5 0.3-1 0.2-0.5 0.5-1 5.2-9 7.5-11.2 60-58.2 141.9-69 7-1 15.6-1 2.3 0 15.7 0zm0 81.7q1.9 0 2.6 0 58.3 2.6 104.8 39.7 5.6 4.5 11.3 12.7 4.9 6.8 3 14.8-3.5 14.7-19.1 21c-10 4.1-18.2-1.4-26.7-8.6q-31.2-26.7-73.3-30.4-1.3-0.1-2.6-0.1-1.4 0-2.7 0.1-42 3.6-73.4 30.2c-8.5 7.3-16.6 12.7-26.7 8.6q-15.6-6.3-19-21-1.9-8 3-14.9 5.7-8.1 11.4-12.6 46.5-37 104.8-39.5 0.7 0 2.6 0zm139-288.7l-6 0.3z"/>
	</g>
	<path class="s5" d="m1079.8 1157.9h18.4c1 0 1.8 0.8 1.8 1.8v228.3c0 1-0.8 1.8-1.8 1.8h-18.4c-1 0-1.8-0.8-1.8-1.8v-228.3c0-1 0.8-1.8 1.8-1.8z"/>
	<path class="s5" d="m1164 1158.1h18.3c1 0 1.9 0.8 1.9 1.9v228.1c0 1.1-0.9 1.9-1.9 1.9h-18.3c-1.1 0-2-0.8-2-1.9v-228.1c0-1.1 0.9-1.9 2-1.9z"/>
	<path class="s5" d="m1574.9 1189.2c-8.8 0-15.9-7.1-15.9-15.9 0-8.8 7.1-15.9 15.9-15.9 8.8 0 15.9 7.1 15.9 15.9 0 8.8-7.1 15.9-15.9 15.9z"/>
	<path class="s5" d="m1649.5 1157.9h18.6c1 0 1.9 0.8 1.9 1.8v228.3c0 1-0.9 1.8-1.9 1.8h-18.6c-1 0-1.8-0.8-1.8-1.8v-228.3c0-1 0.8-1.8 1.8-1.8z"/>
	<path class="s5" d="m1733.7 1157.9h18.4c1 0 1.8 0.8 1.8 1.8v228.3c0 1-0.8 1.9-1.8 1.9h-18.4c-1 0-1.9-0.9-1.9-1.9v-228.3c0-1 0.9-1.8 1.9-1.8z"/>
	<path class="s5" d="m2532.4 1157.9h18.7c0.9 0 1.7 0.8 1.7 1.8v228.4c0 0.9-0.8 1.7-1.7 1.7h-18.7c-1 0-1.7-0.8-1.7-1.7v-228.4c0-1 0.7-1.8 1.7-1.8z"/>
	<path fill-rule="evenodd" class="s5" d="m2952.9 1253.5v-94.1q0-1.9 1.8-1.9h18.2q2.1 0 2.1 2.1v228.3q0 2-2 2h-17.3q-0.4 0-0.7-0.1-0.4-0.2-0.6-0.4-0.3-0.3-0.4-0.7-0.2-0.3-0.2-0.7v-25.6q0-4.9-2.7-0.9-13.5 19.5-36.7 26.5-23.5 7.1-48.3 0.2c-41.7-11.6-61.7-51.9-56.5-94q4.3-34.8 31.4-54.2 33.1-23.5 74.2-12 19.7 5.6 35.9 26.1 1.8 2.2 1.8-0.6zm-60.3 118.5c8.1-0.1 16.1-1.8 23.5-5.1 7.4-3.3 14.1-8.1 19.8-14.1 5.6-6.1 10.1-13.2 13.1-21 3-7.8 4.5-16.2 4.4-24.6-0.1-8.5-1.7-16.8-4.9-24.6-3.2-7.7-7.8-14.8-13.6-20.7-5.7-5.9-12.6-10.5-20.1-13.7-7.4-3.1-15.5-4.7-23.5-4.6-8.1 0.1-16.1 1.8-23.5 5.1-7.5 3.3-14.2 8.1-19.8 14.1-5.7 6.1-10.1 13.2-13.1 21-3.1 7.8-4.6 16.2-4.5 24.6 0.1 8.5 1.8 16.8 5 24.6 3.1 7.7 7.7 14.8 13.5 20.7 5.8 5.9 12.6 10.5 20.1 13.7 7.5 3.1 15.5 4.7 23.6 4.6z"/>
	<path fill-rule="evenodd" class="s5" d="m3351.8 1254.2q1.7 2.1 1.7-0.6l0.1-94.1q0-1.9 1.9-1.9h18.1q2.1 0 2.1 2l-0.1 228.3q0 2-2 2h-17.3q-0.3 0-0.7-0.1-0.3-0.2-0.6-0.4-0.3-0.3-0.4-0.7-0.2-0.3-0.2-0.7v-25.6q0-4.9-2.7-0.9-13.4 19.5-36.7 26.5-23.5 7-48.3 0.1c-41.7-11.6-61.6-51.9-56.4-94q4.3-34.7 31.5-54.1 33-23.5 74.1-11.9 19.7 5.5 35.9 26.1zm-58.5 117.9c8-0.1 16-1.9 23.4-5.2 7.5-3.3 14.2-8.1 19.9-14.1 5.6-6 10.1-13.2 13.1-21 3-7.8 4.5-16.2 4.4-24.6-0.1-8.5-1.8-16.8-4.9-24.6-3.2-7.7-7.8-14.8-13.6-20.7-5.8-5.9-12.6-10.6-20.1-13.7-7.5-3.2-15.5-4.7-23.6-4.7-8.1 0.1-16 1.9-23.5 5.2-7.4 3.3-14.1 8.1-19.8 14.1-5.6 6-10.1 13.2-13.1 21-3 7.8-4.5 16.2-4.4 24.6 0.1 8.5 1.8 16.8 4.9 24.6 3.2 7.8 7.8 14.8 13.6 20.7 5.8 5.9 12.6 10.6 20.1 13.7 7.5 3.2 15.5 4.7 23.6 4.7z"/>
	<path fill-rule="evenodd" class="s5" d="m935 1171.1q3.1 0 9.6 0.5 2.2 0.1 3.1 2.1l97.7 214.1q0.2 0.4 0.1 0.8 0 0.4-0.2 0.7-0.2 0.3-0.5 0.5-0.4 0.2-0.8 0.2h-19q-2.6 0-3.7-2.4l-24.6-54.1q-1-2.1-3.3-2.1-29.1 0.1-58.4 0.1-29.3 0-58.4-0.2-2.3 0-3.3 2.2l-24.7 54q-1.1 2.4-3.7 2.4h-19q-0.4 0-0.7-0.2-0.4-0.2-0.6-0.5-0.2-0.3-0.2-0.7 0-0.4 0.1-0.8l97.9-214q0.9-2 3.1-2.1 6.5-0.5 9.5-0.5zm-51.8 139.7q-0.2 0.3-0.1 0.7 0 0.3 0.2 0.6 0.2 0.3 0.5 0.5 0.3 0.2 0.6 0.2h100.9q0.3 0 0.6-0.2 0.4-0.2 0.5-0.5 0.2-0.3 0.3-0.6 0-0.4-0.2-0.7l-50.4-113q-0.2-0.3-0.5-0.6-0.3-0.2-0.7-0.2-0.4 0-0.8 0.2-0.3 0.3-0.5 0.6z"/>
	<path fill-rule="evenodd" class="s5" d="m1473.2 1278.6c23.9 5.8 38.8 21.5 41.5 46.5q5 46.1-45 60.6-9.5 2.7-29 3.9-13.4 0.8-106.1-0.1-1.9-0.1-1.9-2v-214.1q0-2.2 2.2-2.2 63.3-0.6 102 0.4 15.2 0.3 33.5 7.3c32.8 12.5 42.9 51.6 24.1 79.8-5.1 7.6-15.1 13.4-21.6 17.8q-0.3 0.2-0.4 0.5-0.2 0.3-0.1 0.7 0 0.3 0.3 0.6 0.2 0.2 0.5 0.3zm-117.6-86.6l0.5 76.3q0 0.4 0.1 0.7 0.1 0.4 0.4 0.6 0.3 0.3 0.6 0.4 0.3 0.2 0.7 0.2l73.8-0.4c6.4-0.1 12.8-1.1 18.7-3 6-1.9 11.4-4.6 15.9-8.1 4.5-3.4 8.1-7.5 10.6-12 2.4-4.5 3.7-9.3 3.6-14.2v-6c0-4.9-1.3-9.7-3.8-14.2-2.5-4.4-6.1-8.5-10.7-11.9-4.6-3.4-10-6.1-16-7.9-5.9-1.9-12.3-2.8-18.8-2.8l-73.7 0.5q-0.4 0-0.7 0.1-0.4 0.1-0.6 0.4-0.3 0.2-0.4 0.6-0.2 0.3-0.2 0.7zm0 98.6l0.4 79.1q0 0.3 0.1 0.5 0.1 0.3 0.3 0.5 0.2 0.2 0.5 0.3 0.2 0.1 0.5 0.1l85.3-0.5c6.5 0 13-1 19-2.9 6-1.8 11.4-4.6 16-8 4.6-3.5 8.2-7.6 10.7-12 2.5-4.5 3.7-9.3 3.7-14.1l-0.1-8.3c0-4.8-1.3-9.6-3.8-14-2.5-4.5-6.2-8.5-10.8-11.9-4.7-3.4-10.1-6.1-16.1-7.9-6.1-1.8-12.5-2.7-19-2.7l-85.3 0.4q-0.3 0-0.6 0.1-0.2 0.1-0.4 0.3-0.2 0.2-0.3 0.5-0.1 0.3-0.1 0.5z"/>
	<path class="s5" d="m2057 1171h19.6c1 0 1.9 0.8 1.9 1.9v215.1c0 1-0.9 1.8-1.9 1.8h-19.6c-1 0-1.8-0.8-1.8-1.8v-215.1c0-1.1 0.8-1.9 1.8-1.9z"/>
	<path class="s5" d="m1902.2 1356.9c10.2-17.5-5.4-31.1-21.6-34.8-14.4-3.3-34.8-5.5-52.2-11.8-18.3-6.5-29.3-19.2-29.1-38.5q0.5-32.3 32.3-42.3 45-14.3 89.2 9.6 0.3 0.2 0.5 0.4 0.2 0.3 0.3 0.6 0.1 0.3 0.1 0.7-0.1 0.3-0.3 0.6l-8.4 14.6q-0.8 1.3-2 0.5-23.4-16.5-60.6-12.3c-17.5 1.9-32.7 12.4-28.5 30.9 2.5 10.7 12.1 15.9 22.7 18.6q14.5 3.7 45.2 9.8c16.4 3.3 32 13.3 36.1 30.6 6.3 26.8-9.1 46.4-34.3 53.5q-31.2 8.7-66.8-1.2-19.2-5.2-30-13.8-1.9-1.5-0.6-3.7l7.5-13.1q1.1-1.8 2.9-0.7 38.6 24.4 84.1 13 8.2-2.1 13.5-11.2z"/>
	<path class="s5" d="m2166.3 1252.2q0 3.2 1.8 0.5c18.6-28.1 59.6-34.8 88.6-23.9 30.3 11.5 39.5 40.5 39.5 70.4q-0.1 63.8-0.1 88.9 0 2.1-2.1 2.1h-17.9q-2.2 0-2.2-2.2-0.2-58.5-0.2-88.8c0-31.3-13.2-56.1-48.5-55q-56.9 1.8-57.6 59.4-0.4 41.6 0 85.3 0 0.3-0.1 0.6-0.2 0.2-0.4 0.5-0.2 0.2-0.5 0.3-0.3 0.1-0.6 0.1h-19.2q-1.7 0-1.7-1.7v-161.4q0-2 2-2h17.3q0.4 0 0.7 0.1 0.4 0.2 0.6 0.4 0.3 0.3 0.5 0.6 0.1 0.4 0.1 0.8z"/>
	<path class="s5" d="m2363.2 1307.9q0 0.5 0 0.9 3.6 59.9 63.1 62.8 26.4 1.3 45.7-22.5 0.6-0.8 1.5-0.3l15.1 8.7q1.3 0.7 0.4 2c-23.6 34.8-70.5 40.2-106.2 21.7-27.9-14.5-42.2-42.1-42.2-73.2 0-31.1 14.1-58.9 42-73.4 35.6-18.6 82.5-13.4 106.3 21.4q0.8 1.3-0.5 2l-15 8.8q-0.9 0.5-1.5-0.3-19.4-23.9-45.8-22.5-59.5 3.2-62.9 63.1 0 0.4 0 0.8z"/>
	<path fill-rule="evenodd" class="s5" d="m3044.1 1314.8q-0.3 0-0.5 0.1-0.3 0.2-0.4 0.3-0.2 0.2-0.3 0.5-0.1 0.2 0 0.5c3.2 33.6 28.2 54.4 60.9 55.6q30.8 1 51.9-19.7 1.3-1.2 2.7 0l10.4 10.5q0.3 0.3 0.5 0.8 0.2 0.4 0.2 0.9 0 0.5-0.1 0.9-0.2 0.5-0.5 0.9c-31.7 35.3-95.2 33-127.2-0.9q-21.3-22.6-21-55.4 0.6-67.3 60.5-82.7 22.5-5.9 42.8 0.4c38.8 12.1 57.2 46 56 85.5q0 1.8-1.9 1.8zm-0.5-16.7h114.2q0.1 0 0.2 0 0.1 0 0.1-0.1 0.1-0.1 0.1-0.1 0.1-0.1 0.1-0.2v-0.2c0-7.1-1.5-14.2-4.4-20.8-2.8-6.6-7-12.5-12.3-17.6-5.3-5-11.6-9-18.5-11.8-6.9-2.7-14.3-4.1-21.8-4.1h-1.2c-7.5 0-14.9 1.4-21.8 4.1-6.9 2.8-13.2 6.8-18.5 11.8-5.2 5.1-9.4 11-12.3 17.6-2.9 6.6-4.3 13.7-4.3 20.8v0.2q0 0.1 0 0.2 0 0 0.1 0.1 0.1 0.1 0.1 0.1 0.1 0 0.2 0z"/>
	<path class="s5" d="m1565.5 1225.2h18.5c1 0 1.9 0.9 1.9 2v160.7c0 1.1-0.9 2-1.9 2h-18.5c-1 0-1.9-0.9-1.9-2v-160.7c0-1.1 0.9-2 1.9-2z"/>
	<path class="s5" d="m2741.6 1363.2q0-3.2-1.8-0.5c-18.5 27.9-59.4 34.3-88.2 23.4-30-11.6-39.1-40.5-38.9-70.2q0.3-63.4 0.3-88.4 0.1-2 2.2-2h17.8q2.2 0.1 2.2 2.2-0.1 58.2-0.2 88.3c-0.1 31.1 12.9 55.8 48 54.9q56.6-1.6 57.5-58.8 0.6-41.4 0.4-84.8 0-0.3 0.1-0.6 0.1-0.3 0.3-0.5 0.3-0.2 0.6-0.3 0.2-0.2 0.6-0.2l19 0.1q1.8 0 1.8 1.7l-0.7 160.5q0 2-2 2l-17.2-0.1q-0.4 0-0.7-0.1-0.4-0.1-0.6-0.4-0.3-0.2-0.4-0.6-0.2-0.3-0.2-0.7z"/>
</svg>